# xmcd
#
# Track frame offsets: 
#        150
#        12913
#        25783
#        39445
#        51214
#        62227
#        76067
#        88161
#        99479
#        110912
#        123602
#        138074
#        148321
#        162458
#        173817
#        187149
#        198162
#        212608
#
# Disc length: 3024 seconds
#
# Revision: 0
# Processed by: cddbd v1.5.2PL0 Copyright (c) Steve Scherf et al.
# Submitted via: ExactAudioCopy v0.99pb3
#
DISCID=010bce12
DTITLE=Various Artist - Harmonica Blues (vol. 2) 1946-1952
DYEAR=2003
DGENRE=Blues
TTITLE0=Pete Lewis/Harmonica boogie
TTITLE1=Drifting Slim/Down South blues
TTITLE2=Little Walter/Blue midnight
TTITLE3=Little Sam Davis/Going to New Orleans
TTITLE4=Sonny Terry/Harmonica Rhumba
TTITLE5=Howlin' Wolf/Riding in the moonlight
TTITLE6=Pete Lewis/Scratchin'
TTITLE7=Sonny Terry: Baby, let's have some fun
TTITLE8=Papa Lightfoot/The Honeydripper
TTITLE9=Sonny Boy Johnson/Come home and go with me
TTITLE10=Walter Mitchell and Robert Richard/Stop mess around
TTITLE11=Papa Lightfoot/Jumpin' with Jarvis
TTITLE12=Grace Brim/Man around my door
TTITLE13=Little Milton/Little Milton's boogie
TTITLE14=Sunny Blair/Five foot three
TTITLE15=Rhythm Willie/Wailin' Willie
TTITLE16=Eddie Burns/Hello Miss Jessie Lee
TTITLE17=Little Walter/Sad hours
EXTD=
EXTT0=
EXTT1=
EXTT2=
EXTT3=
EXTT4=
EXTT5=
EXTT6=
EXTT7=
EXTT8=
EXTT9=
EXTT10=
EXTT11=
EXTT12=
EXTT13=
EXTT14=
EXTT15=
EXTT16=
EXTT17=
PLAYORDER=
